{
  "accessors": [
    {
      "bufferView": 2,
      "componentType": 5126,
      "count": 65532,
      "max": [
        0.3777046501636505,
        0.21050360798835754,
        -0.14454609155654907
      ],
      "min": [
        -0.32298317551612854,
        -0.38912537693977356,
        -1.019957184791565
      ],
      "type": "VEC3"
    },
    {
      "bufferView": 2,
      "byteOffset": 786384,
      "componentType": 5126,
      "count": 65532,
      "max": [
        0.9999578595161438,
        0.9999580383300781,
        0.9999781847000122
      ],
      "min": [
        -0.9999964237213135,
        -0.999936580657959,
        -0.9998010993003845
      ],
      "type": "VEC3"
    },
    {
      "bufferView": 1,
      "componentType": 5126,
      "count": 65532,
      "max": [
        0.9960049986839294,
        0.9961932897567749
      ],
      "min": [
        0.0039059999398887157,
        0.000997006893157959
      ],
      "type": "VEC2"
    },
    {
      "bufferView": 0,
      "componentType": 5125,
      "count": 73539,
      "type": "SCALAR"
    },
    {
      "bufferView": 2,
      "byteOffset": 1572768,
      "componentType": 5126,
      "count": 6088,
      "max": [
        0.34788092970848083,
        0.04382887855172157,
        -0.14454609155654907
      ],
      "min": [
        -0.26913267374038696,
        -0.29055356979370117,
        -1.0158144235610962
      ],
      "type": "VEC3"
    },
    {
      "bufferView": 2,
      "byteOffset": 1645824,
      "componentType": 5126,
      "count": 6088,
      "max": [
        0.9990549087524414,
        0.9997549057006836,
        0.9940162301063538
      ],
      "min": [
        -0.9986027479171753,
        -0.9997020363807678,
        -0.9976182579994202
      ],
      "type": "VEC3"
    },
    {
      "bufferView": 1,
      "byteOffset": 524256,
      "componentType": 5126,
      "count": 6088,
      "max": [
        0.9923917055130005,
        0.9960939884185791
      ],
      "min": [
        0.017582999542355537,
        0.0019142627716064453
      ],
      "type": "VEC2"
    },
    {
      "bufferView": 0,
      "byteOffset": 294156,
      "componentType": 5125,
      "count": 6636,
      "type": "SCALAR"
    },
    {
      "bufferView": 2,
      "byteOffset": 1718880,
      "componentType": 5126,
      "count": 59574,
      "max": [
        0.39250120520591736,
        0.21970094740390778,
        -0.1293560117483139
      ],
      "min": [
        -0.32767972350120544,
        -0.4015234112739563,
        -1.0340839624404907
      ],
      "type": "VEC3"
    },
    {
      "bufferView": 2,
      "byteOffset": 2433768,
      "componentType": 5126,
      "count": 59574,
      "max": [
        0.9997611045837402,
        0.9999779462814331,
        0.02289716899394989
      ],
      "min": [
        -0.9997603893280029,
        -0.9999790191650391,
        -0.0228984747081995
      ],
      "type": "VEC3"
    },
    {
      "bufferView": 1,
      "byteOffset": 572960,
      "componentType": 5126,
      "count": 59574,
      "max": [
        0.0,
        1.0
      ],
      "min": [
        0.0,
        1.0
      ],
      "type": "VEC2"
    },
    {
      "bufferView": 0,
      "byteOffset": 320700,
      "componentType": 5125,
      "count": 60522,
      "type": "SCALAR"
    }
  ],
  "asset": {
    "extras": {
      "author": "atakujonc (https://sketchfab.com/atakujonc)",
      "license": "CC-BY-4.0 (http://creativecommons.org/licenses/by/4.0/)",
      "source": "https://sketchfab.com/3d-models/weed-nugget-1-475563a6f8864ca9b7b9613a129d6716",
      "title": "Weed Nugget (1)"
    },
    "generator": "Sketchfab-15.31.0",
    "version": "2.0"
  },
  "bufferViews": [
    {
      "buffer": 0,
      "byteLength": 562788,
      "name": "floatBufferViews",
      "target": 34963
    },
    {
      "buffer": 0,
      "byteLength": 1049552,
      "byteOffset": 562788,
      "byteStride": 8,
      "name": "floatBufferViews",
      "target": 34962
    },
    {
      "buffer": 0,
      "byteLength": 3148656,
      "byteOffset": 1612340,
      "byteStride": 12,
      "name": "floatBufferViews",
      "target": 34962
    }
  ],
  "buffers": [
    {
      "byteLength": 4760996,
      "uri": "scene.bin"
    }
  ],
  "extensionsUsed": [
    "KHR_materials_specular"
  ],
  "images": [
    {
      "uri": "textures/Moon_monkey_baseColor.jpeg"
    },
    {
      "uri": "textures/Moon_monkey_specularf0.png"
    },
    {
      "uri": "textures/hairs_baseColor.jpeg"
    },
    {
      "uri": "textures/hairs_metallicRoughness.png"
    },
    {
      "uri": "textures/hairs_specularf0.png"
    }
  ],
  "materials": [
    {
      "doubleSided": true,
      "extensions": {
        "KHR_materials_specular": {
          "specularColorFactor": [
            1.0,
            1.0,
            1.0
          ],
          "specularFactor": 1.0,
          "specularTexture": {
            "index": 1
          }
        }
      },
      "name": "Moon_monkey",
      "pbrMetallicRoughness": {
        "baseColorTexture": {
          "index": 0
        },
        "metallicFactor": 0.0787402
      }
    },
    {
      "alphaMode": "BLEND",
      "doubleSided": true,
      "extensions": {
        "KHR_materials_specular": {
          "specularColorFactor": [
            1.0,
            1.0,
            1.0
          ],
          "specularFactor": 1.0,
          "specularTexture": {
            "index": 4
          }
        }
      },
      "name": "hairs",
      "pbrMetallicRoughness": {
        "baseColorFactor": [
          1.0,
          1.0,
          1.0,
          0.204724
        ],
        "baseColorTexture": {
          "index": 2
        },
        "metallicRoughnessTexture": {
          "index": 3
        },
        "roughnessFactor": 0.0
      }
    }
  ],
  "meshes": [
    {
      "name": "Object_0",
      "primitives": [
        {
          "attributes": {
            "NORMAL": 1,
            "POSITION": 0,
            "TEXCOORD_0": 2
          },
          "indices": 3,
          "material": 0,
          "mode": 4
        }
      ]
    },
    {
      "name": "Object_1",
      "primitives": [
        {
          "attributes": {
            "NORMAL": 5,
            "POSITION": 4,
            "TEXCOORD_0": 6
          },
          "indices": 7,
          "material": 0,
          "mode": 4
        }
      ]
    },
    {
      "name": "Object_2",
      "primitives": [
        {
          "attributes": {
            "NORMAL": 9,
            "POSITION": 8,
            "TEXCOORD_0": 10
          },
          "indices": 11,
          "material": 1,
          "mode": 4
        }
      ]
    }
  ],
  "nodes": [
    {
      "children": [
        1
      ],
      "matrix": [
        1.0,
        0.0,
        0.0,
        0.0,
        0.0,
        2.220446049250313e-16,
        -1.0,
        0.0,
        0.0,
        1.0,
        2.220446049250313e-16,
        0.0,
        0.0,
        0.0,
        0.0,
        1.0
      ],
      "name": "Sketchfab_model"
    },
    {
      "children": [
        2
      ],
      "name": "root"
    },
    {
      "children": [
        3
      ],
      "matrix": [
        1.0,
        0.0,
        0.0,
        0.0,
        0.0,
        2.220446049250313e-16,
        1.0,
        0.0,
        0.0,
        -1.0,
        2.220446049250313e-16,
        0.0,
        0.0,
        0.0,
        0.0,
        1.0
      ],
      "name": "GLTF_SceneRootNode"
    },
    {
      "children": [
        4,
        5,
        6
      ],
      "matrix": [
        1.0,
        0.0,
        0.0,
        0.0,
        0.0,
        -1.685873969314855e-07,
        0.9999999999999858,
        0.0,
        0.0,
        -0.9999999999999858,
        -1.685873969314855e-07,
        0.0,
        0.0,
        0.0,
        0.0,
        1.0
      ],
      "name": "Moon_monkey_0"
    },
    {
      "mesh": 0,
      "name": "Object_4"
    },
    {
      "mesh": 1,
      "name": "Object_5"
    },
    {
      "mesh": 2,
      "name": "Object_6"
    }
  ],
  "samplers": [
    {
      "magFilter": 9729,
      "minFilter": 9987,
      "wrapS": 10497,
      "wrapT": 10497
    },
    {
      "magFilter": 9729,
      "minFilter": 9987,
      "wrapS": 33648,
      "wrapT": 33648
    }
  ],
  "scene": 0,
  "scenes": [
    {
      "name": "Sketchfab_Scene",
      "nodes": [
        0
      ]
    }
  ],
  "textures": [
    {
      "sampler": 0,
      "source": 0
    },
    {
      "sampler": 0,
      "source": 1
    },
    {
      "sampler": 0,
      "source": 2
    },
    {
      "sampler": 1,
      "source": 3
    },
    {
      "sampler": 0,
      "source": 4
    }
  ]
}
